<svg id="visual" viewBox="0 0 960 540" width="960" height="540" xmlns="http://www.w3.org/2000/svg" xmlns:xlink="http://www.w3.org/1999/xlink" version="1.1"><path d="M0 369L22.8 371.5C45.7 374 91.3 379 137 386.3C182.7 393.7 228.3 403.3 274 411C319.7 418.7 365.3 424.3 411.2 422.2C457 420 503 410 548.8 407.2C594.7 404.3 640.3 408.7 686 406.5C731.7 404.3 777.3 395.7 823 389C868.7 382.3 914.3 377.7 937.2 375.3L960 373L960 541L937.2 541C914.3 541 868.7 541 823 541C777.3 541 731.7 541 686 541C640.3 541 594.7 541 548.8 541C503 541 457 541 411.2 541C365.3 541 319.7 541 274 541C228.3 541 182.7 541 137 541C91.3 541 45.7 541 22.8 541L0 541Z" fill="#1db954"></path><path d="M0 392L22.8 399C45.7 406 91.3 420 137 424.7C182.7 429.3 228.3 424.7 274 417.5C319.7 410.3 365.3 400.7 411.2 403.2C457 405.7 503 420.3 548.8 426C594.7 431.7 640.3 428.3 686 425.8C731.7 423.3 777.3 421.7 823 417.8C868.7 414 914.3 408 937.2 405L960 402L960 541L937.2 541C914.3 541 868.7 541 823 541C777.3 541 731.7 541 686 541C640.3 541 594.7 541 548.8 541C503 541 457 541 411.2 541C365.3 541 319.7 541 274 541C228.3 541 182.7 541 137 541C91.3 541 45.7 541 22.8 541L0 541Z" fill="#219f43"></path><path d="M0 464L22.8 461.2C45.7 458.3 91.3 452.7 137 450.7C182.7 448.7 228.3 450.3 274 453.5C319.7 456.7 365.3 461.3 411.2 463C457 464.7 503 463.3 548.8 460C594.7 456.7 640.3 451.3 686 445.7C731.7 440 777.3 434 823 433.3C868.7 432.7 914.3 437.3 937.2 439.7L960 442L960 541L937.2 541C914.3 541 868.7 541 823 541C777.3 541 731.7 541 686 541C640.3 541 594.7 541 548.8 541C503 541 457 541 411.2 541C365.3 541 319.7 541 274 541C228.3 541 182.7 541 137 541C91.3 541 45.7 541 22.8 541L0 541Z" fill="#208533"></path><path d="M0 467L22.8 465.7C45.7 464.3 91.3 461.7 137 462.5C182.7 463.3 228.3 467.7 274 469C319.7 470.3 365.3 468.7 411.2 472.2C457 475.7 503 484.3 548.8 487.3C594.7 490.3 640.3 487.7 686 481.7C731.7 475.7 777.3 466.3 823 463.2C868.7 460 914.3 463 937.2 464.5L960 466L960 541L937.2 541C914.3 541 868.7 541 823 541C777.3 541 731.7 541 686 541C640.3 541 594.7 541 548.8 541C503 541 457 541 411.2 541C365.3 541 319.7 541 274 541C228.3 541 182.7 541 137 541C91.3 541 45.7 541 22.8 541L0 541Z" fill="#1c6c25"></path><path d="M0 493L22.8 491.7C45.7 490.3 91.3 487.7 137 489.3C182.7 491 228.3 497 274 502.5C319.7 508 365.3 513 411.2 511.7C457 510.3 503 502.7 548.8 501C594.7 499.3 640.3 503.7 686 502.5C731.7 501.3 777.3 494.7 823 491.7C868.7 488.7 914.3 489.3 937.2 489.7L960 490L960 541L937.2 541C914.3 541 868.7 541 823 541C777.3 541 731.7 541 686 541C640.3 541 594.7 541 548.8 541C503 541 457 541 411.2 541C365.3 541 319.7 541 274 541C228.3 541 182.7 541 137 541C91.3 541 45.7 541 22.8 541L0 541Z" fill="#165418"></path></svg>